<?xml version="1.0" encoding="UTF-8" standalone="no"?>
<svg
   xmlns:dc="http://purl.org/dc/elements/1.1/"
   xmlns:cc="http://creativecommons.org/ns#"
   xmlns:rdf="http://www.w3.org/1999/02/22-rdf-syntax-ns#"
   xmlns:svg="http://www.w3.org/2000/svg"
   xmlns="http://www.w3.org/2000/svg"
   xmlns:sodipodi="http://sodipodi.sourceforge.net/DTD/sodipodi-0.dtd"
   xmlns:inkscape="http://www.inkscape.org/namespaces/inkscape"
   version="1.1"
   x="0px"
   y="0px"
   viewBox="0 0 64 64"
   style="enable-background:new 0 0 64 64;"
   xml:space="preserve"
   id="svg44"
   sodipodi:docname="mail.svg"
   inkscape:version="1.0.1 (3bc2e813f5, 2020-09-07)"><metadata
   id="metadata50"><rdf:RDF><cc:Work
       rdf:about=""><dc:format>image/svg+xml</dc:format><dc:type
         rdf:resource="http://purl.org/dc/dcmitype/StillImage" /></cc:Work></rdf:RDF></metadata><defs
   id="defs48">

	
	

		
	
		
		
		
		
		
		
	
			
		
			
		
			
		
			
		
			
		
			
		
				
			
				
			
				
			
				
			</defs><sodipodi:namedview
   pagecolor="#ffffff"
   bordercolor="#666666"
   borderopacity="1"
   objecttolerance="10"
   gridtolerance="10"
   guidetolerance="10"
   inkscape:pageopacity="0"
   inkscape:pageshadow="2"
   inkscape:window-width="1600"
   inkscape:window-height="880"
   id="namedview46"
   showgrid="false"
   inkscape:snap-page="true"
   inkscape:zoom="7.3472814"
   inkscape:cx="35.516813"
   inkscape:cy="28.748488"
   inkscape:window-x="0"
   inkscape:window-y="20"
   inkscape:window-maximized="0"
   inkscape:current-layer="svg44"
   inkscape:document-rotation="0" />
<style
   type="text/css"
   id="style2">
	.st0{fill:#77B3D4;}
	.st1{opacity:0.2;}
	.st2{fill:#231F20;}
	.st3{fill:#E0E0D1;}
	.st4{fill:#FFFFFF;}
</style>
<rect
   style="fill:#ceeaff;stroke-width:16.767;stroke-linecap:round;stroke-linejoin:round;fill-opacity:0.79588836;stroke-miterlimit:4;stroke-dasharray:none"
   id="rect102"
   width="64"
   height="64"
   x="-1.7763568e-15"
   y="-1.7763568e-15"
   ry="10.032931" /><g
   id="g941"
   transform="matrix(1.3094631,0,0,1.3094631,-9.9028178,-10.212281)"><path
     class="st2"
     d="m 52,44 c 0,2.2 -1.8,4 -4,4 H 16 c -2.2,0 -4,-1.8 -4,-4 V 24 c 0,-2.2 1.8,-4 4,-4 h 32 c 2.2,0 4,1.8 4,4 z"
     id="path8"
     style="opacity:0.2" /><path
     class="st3"
     d="m 52,42 c 0,2.2 -1.8,4 -4,4 H 16 c -2.2,0 -4,-1.8 -4,-4 V 22 c 0,-2.2 1.8,-4 4,-4 h 32 c 2.2,0 4,1.8 4,4 z"
     id="path12" /><path
     class="st2"
     d="m 35.5,30.2 c -1.9,-2.1 -5.1,-2.1 -7,0 L 13,43.2 c -0.2,0.2 -0.3,0.4 -0.5,0.6 0.7,1.3 2,2.2 3.4,2.2 h 32 c 1.5,0 2.7,-0.9 3.4,-2.2 -0.1,-0.2 -0.3,-0.4 -0.5,-0.6 z"
     id="path16"
     style="opacity:0.2" /><path
     class="st3"
     d="m 35.5,32 c -1.9,-1.9 -5.1,-1.9 -7,0 L 13,43.5 c -0.2,0.2 -0.3,0.3 -0.5,0.5 0.7,1.2 2,1.9 3.4,1.9 h 32 c 1.5,0 2.7,-0.8 3.4,-1.9 -0.1,-0.2 -0.3,-0.3 -0.5,-0.5 z"
     id="path22" /><path
     class="st2"
     d="M 12.6,20.2 C 13.3,18.9 14.6,18 16,18 h 32 c 1.5,0 2.7,0.9 3.4,2.2 -0.1,0.2 -0.3,0.4 -0.5,0.6 l -15.4,13 c -1.9,2.1 -5.1,2.1 -7,0 z"
     id="path28"
     style="opacity:0.2" /><path
     class="st4"
     d="m 28.5,32 c 1.9,1.9 5.1,1.9 7,0 L 51,20.5 c 0.2,-0.2 0.3,-0.3 0.5,-0.5 -0.7,-1.2 -2,-1.9 -3.4,-1.9 H 16 c -1.5,0 -2.7,0.8 -3.4,1.9 0.1,0.2 0.3,0.3 0.5,0.5 z"
     id="path34" /></g>

</svg>
