<?xml version="1.0" encoding="UTF-8" standalone="no"?>
<svg
   xmlns:dc="http://purl.org/dc/elements/1.1/"
   xmlns:cc="http://creativecommons.org/ns#"
   xmlns:rdf="http://www.w3.org/1999/02/22-rdf-syntax-ns#"
   xmlns:svg="http://www.w3.org/2000/svg"
   xmlns="http://www.w3.org/2000/svg"
   xmlns:sodipodi="http://sodipodi.sourceforge.net/DTD/sodipodi-0.dtd"
   xmlns:inkscape="http://www.inkscape.org/namespaces/inkscape"
   version="1.1"
   x="0px"
   y="0px"
   width="30"
   height="30"
   viewBox="0 0 30 30"
   enable-background="new 0 0 293.5 293.5"
   xml:space="preserve"
   id="svg11"
   sodipodi:docname="whatsapp-logo.svg"
   inkscape:version="1.0.1 (3bc2e813f5, 2020-09-07)"
   inkscape:export-filename="/home/martin/web-development/ropa-de-dia/img/whatsapp-logo.png"
   inkscape:export-xdpi="96"
   inkscape:export-ydpi="96"><metadata
   id="metadata17"><rdf:RDF><cc:Work
       rdf:about=""><dc:format>image/svg+xml</dc:format><dc:type
         rdf:resource="http://purl.org/dc/dcmitype/StillImage" /><dc:title></dc:title></cc:Work></rdf:RDF></metadata><defs
   id="defs15">
	
	

		
			
	
		
	
			
		</defs><sodipodi:namedview
   fit-margin-bottom="0"
   fit-margin-right="0"
   fit-margin-left="0"
   fit-margin-top="0"
   lock-margins="false"
   inkscape:guide-bbox="true"
   showguides="true"
   inkscape:document-rotation="0"
   pagecolor="#ffffff"
   bordercolor="#666666"
   borderopacity="1"
   objecttolerance="10"
   gridtolerance="10"
   guidetolerance="10"
   inkscape:pageopacity="0"
   inkscape:pageshadow="2"
   inkscape:window-width="1600"
   inkscape:window-height="880"
   id="namedview13"
   showgrid="false"
   inkscape:zoom="22.627418"
   inkscape:cx="13.465437"
   inkscape:cy="15.442747"
   inkscape:current-layer="svg11"
   inkscape:window-x="0"
   inkscape:window-y="20"
   inkscape:window-maximized="0"
   inkscape:snap-page="true" />

<g
   transform="translate(-5.9604058,-11.001363)"
   id="background_1_"
   enable-background="new    ">
</g>
<rect
   style="fill:#39de56;fill-opacity:1;stroke-width:6.99081;stroke-linecap:round;stroke-linejoin:round"
   id="rect15"
   width="29.999992"
   height="29.999992"
   x="6.9279477e-06"
   y="3.2156631e-06"
   ry="5.7963014" /><path
   id="path5"
   d="M 21.846333,8.1134548 C 20.029812,6.2948062 17.614079,5.2928164 15.040326,5.2917043 c -5.3032107,0 -9.6194289,4.3159388 -9.6215597,9.6208157 -6.908e-4,1.695718 0.4423042,3.350886 1.284333,4.810085 l -1.3649612,4.985692 5.1004829,-1.33793 c 1.405319,0.766489 2.987544,1.17056 4.597815,1.171117 h 0.004 c 5.302658,0 9.619242,-4.316494 9.621466,-9.621462 10e-4,-2.570701 -0.999026,-4.9880088 -2.815547,-6.8065672 z M 15.040419,22.916583 h -0.0031 c -1.434941,-6.9e-4 -2.842392,-0.38611 -4.070162,-1.11474 L 10.675086,21.628645 7.6483809,22.422533 8.4562501,19.471552 8.266108,19.168847 C 7.4656467,17.895714 7.0427829,16.424116 7.0434321,14.912984 c 0.00172,-4.409159 3.5891639,-7.9962857 8.0003609,-7.9962857 2.135893,6.908e-4 4.143849,0.8336021 5.653685,2.3452866 1.509833,1.5115911 2.340749,3.5207571 2.339916,5.6575701 -0.0018,4.409532 -3.589164,7.997028 -7.996841,7.997028 z m 4.386479,-5.989438 c -0.24041,-0.120249 -1.422261,-0.701875 -1.642674,-0.782133 -0.220319,-0.08007 -0.380653,-0.120248 -0.540894,0.120438 -0.160241,0.240681 -0.62106,0.782132 -0.761304,0.94265 -0.140245,0.16033 -0.280489,0.180512 -0.520805,0.06007 -0.2405,-0.120252 -1.015041,-0.374175 -1.933347,-1.193245 -0.714646,-0.637443 -1.197126,-1.424667 -1.337373,-1.665442 -0.140244,-0.240686 -0.01498,-0.370749 0.105435,-0.490628 0.108124,-0.107746 0.240405,-0.280861 0.360656,-0.421198 0.120252,-0.140338 0.160241,-0.240683 0.240409,-0.401111 0.08017,-0.160423 0.04008,-0.300854 -0.02009,-0.421106 -0.06007,-0.120433 -0.540894,-1.303769 -0.741218,-1.785141 -0.195139,-0.468686 -0.393332,-0.405274 -0.540891,-0.412682 -0.140061,-0.0069 -0.300485,-0.0084 -0.460819,-0.0084 -0.160241,0 -0.420642,0.06018 -0.641056,0.300858 -0.220316,0.240683 -0.841376,0.822309 -0.841376,2.005647 0,1.183329 0.861372,2.326399 0.981624,2.486917 0.120154,0.160426 1.695251,2.588656 4.106819,3.630081 0.573479,0.247722 1.021337,0.395557 1.370515,0.506455 0.575979,0.183014 1.100024,0.157096 1.514184,0.09525 0.461932,-0.06906 1.422355,-0.581623 1.622681,-1.143159 0.200323,-0.561628 0.200323,-1.042995 0.140244,-1.14325 -0.06008,-0.100166 -0.220319,-0.160335 -0.460725,-0.280768 z"
   fill="#ffffff"
   clip-rule="evenodd"
   fill-rule="evenodd"
   style="fill:#ffffff;stroke-width:0.092571" /></svg>
