<?xml version="1.0" encoding="UTF-8" standalone="no"?>
<svg
   xmlns:dc="http://purl.org/dc/elements/1.1/"
   xmlns:cc="http://creativecommons.org/ns#"
   xmlns:rdf="http://www.w3.org/1999/02/22-rdf-syntax-ns#"
   xmlns:svg="http://www.w3.org/2000/svg"
   xmlns="http://www.w3.org/2000/svg"
   xmlns:sodipodi="http://sodipodi.sourceforge.net/DTD/sodipodi-0.dtd"
   xmlns:inkscape="http://www.inkscape.org/namespaces/inkscape"
   width="210mm"
   height="297mm"
   viewBox="0 0 210 297"
   version="1.1"
   id="svg8"
   sodipodi:docname="banner1.svg"
   inkscape:version="1.0.1 (3bc2e813f5, 2020-09-07)">
  <defs
     id="defs2" />
  <sodipodi:namedview
     id="base"
     pagecolor="#ffffff"
     bordercolor="#666666"
     borderopacity="1.0"
     inkscape:pageopacity="0.0"
     inkscape:pageshadow="2"
     inkscape:zoom="0.35"
     inkscape:cx="400"
     inkscape:cy="560"
     inkscape:document-units="mm"
     inkscape:current-layer="layer1"
     inkscape:document-rotation="0"
     showgrid="false"
     inkscape:object-paths="false" />
  <metadata
     id="metadata5">
    <rdf:RDF>
      <cc:Work
         rdf:about="">
        <dc:format>image/svg+xml</dc:format>
        <dc:type
           rdf:resource="http://purl.org/dc/dcmitype/StillImage" />
        <dc:title></dc:title>
      </cc:Work>
    </rdf:RDF>
  </metadata>
  <g
     inkscape:label="Layer 1"
     inkscape:groupmode="layer"
     id="layer1">
    <rect
       style="fill:#541638;fill-opacity:1;stroke:none;stroke-width:0.747212;stroke-linecap:round;stroke-linejoin:round;stroke-miterlimit:4;stroke-dasharray:none;stroke-opacity:1"
       id="rect925"
       width="167.05292"
       height="186.07329"
       x="21.473541"
       y="55.484486"
       ry="0" />
    <path
       style="fill:#711d47;fill-opacity:1;stroke:none;stroke-width:2.02832px;stroke-linecap:butt;stroke-linejoin:miter;stroke-opacity:1"
       d="M 188.52646,241.55774 H 52.335678 c 0,0 -15.05122,-44.18322 -0.47836,-55.61912 7.38322,-5.79388 19.40427,11.59512 27.36504,6.6245 9.92438,-6.19673 -2.0079,-24.60732 -1.47258,-36.2952 0.40784,-8.9031 7.44823,-17.16922 4.03873,-25.40368 -3.91047,-9.44439 -17.80389,2.04279 -17.14928,-23.33742 0.20468,-7.944992 -16.1517,-6.00907 -20.01732,-12.953252 -7.13921,-12.824763 0.0935,-39.08911 0.0935,-39.08911 H 188.52606 Z"
       id="path929"
       sodipodi:nodetypes="ccssssssccc" />
    <path
       style="fill:#841f47;fill-opacity:1;stroke:none;stroke-width:2.02832px;stroke-linecap:butt;stroke-linejoin:miter;stroke-opacity:1"
       d="M 188.52646,241.55774 H 57.582738 c -12.02979,-10.70332 -13.86482,-40.80501 14.56796,-24.40784 11.05949,6.37803 15.53572,-3.58122 2.99813,-15.97262 -18.0469,-17.83647 -7.51231,-36.07971 1.95716,-48.4524 7.20268,-9.41097 22.48266,-7.81543 21.92886,-20.14259 -0.45307,-10.09272 -2.80464,-22.53003 -17.46589,-32.23454 -6.45808,-4.274694 1.60827,-19.538732 -5.55141,-22.491635 C 26.655258,57.497728 49.060498,55.484458 49.060498,55.484458 H 188.52608 Z"
       id="path931"
       sodipodi:nodetypes="ccssssssccc" />
    <path
       style="fill:#a12457;fill-opacity:1;stroke:none;stroke-width:2.02832px;stroke-linecap:butt;stroke-linejoin:miter;stroke-opacity:1"
       d="M 188.52646,241.55774 V 55.484458 H 58.681058 c -16.70825,4.997067 3.93033,11.816595 30.78512,9.304186 0,0 28.816322,9.940011 23.685402,15.776976 -28.752072,32.70816 -18.517452,26.927 -3.28776,50.74027 8.98888,14.05502 -32.020362,13.44135 -19.747402,48.07323 3.09043,8.72057 11.906442,25.9896 7.31744,34.02328 -5.84953,10.24006 -33.68919,-0.58569 -41.20395,8.50285 -4.21628,5.09933 9.5485,19.65249 9.5485,19.65249 z"
       id="path933"
       sodipodi:nodetypes="cccsssssscc" />
    <path
       style="fill:#bb2b5e;fill-opacity:1;stroke:none;stroke-width:2.02832px;stroke-linecap:butt;stroke-linejoin:miter;stroke-opacity:1"
       d="m 60.516628,241.55774 c -3.55737,-3.37982 -7.95564,-14.82063 31.52597,-23.58014 31.251302,-6.93352 -12.37484,-34.96467 -0.13952,-47.01761 0,0 37.391992,-25.88779 40.687492,-46.5529 C 134.85682,110.196 128.53467,81.689009 114.16933,80.835543 52.871768,77.193688 88.571858,56.516008 96.197928,55.484458 H 188.52646 V 241.55774 Z"
       id="path935"
       sodipodi:nodetypes="csssscccc" />
    <path
       style="fill:#ff8080;fill-opacity:1;stroke:none;stroke-width:2.02832px;stroke-linecap:butt;stroke-linejoin:miter;stroke-opacity:1"
       d="m 74.384598,241.55774 c -4.91811,-1.09287 -4.36653,-30.11778 26.259982,-37.96227 20.08777,-5.14517 15.67877,-24.85171 16.0239,-34.08959 0.56192,-15.04049 20.03097,-24.83814 21.25072,-39.83962 1.03316,-12.70647 -6.16331,-40.093516 -18.79351,-38.361438 -16.83666,2.309028 -16.74651,-4.270858 -22.710042,-17.004778 -6.4284,-13.726372 -20.18191,-11.6149 -36.07005,-11.762779 -10.58174,-0.09813 0.24532,-7.727423 10.13105,-7.052807 H 188.52646 V 241.55774 Z"
       id="path937"
       sodipodi:nodetypes="csssssscccc" />
    <path
       style="fill:#eb3860;fill-opacity:1;stroke:none;stroke-width:2.02832px;stroke-linecap:butt;stroke-linejoin:miter;stroke-opacity:1"
       d="m 118.8826,241.55774 h 69.64386 V 55.484458 h -61.8223 c 0,0 -39.335882,14.491755 7.20674,24.03221 15.72815,3.223976 -8.26167,31.283412 -8.96986,47.322952 -0.64396,14.5941 20.24661,29.59113 4.33494,43.61011 -29.1481,29.718 -14.07173,39.81555 -10.39338,71.10801 z"
       id="path939"
       sodipodi:nodetypes="ccccsscc" />
    <path
       style="fill:#e15a71;fill-opacity:1;stroke:none;stroke-width:2.02832px;stroke-linecap:butt;stroke-linejoin:miter;stroke-opacity:0.998871"
       d="m 188.52646,241.55774 h -81.03307 c -8.401432,-16.06499 0.80816,-27.2663 29.38092,-33.38124 10.4843,-2.24379 18.09321,-20.61597 6.8817,-40.73157 -9.46165,-16.9761 29.81551,-38.58974 25.55807,-57.90515 -2.9989,-11.069766 -19.83479,-13.564773 -24.70299,-23.949112 -4.27209,-9.112686 -2.28849,-30.10621 -2.28849,-30.10621 h 46.20386 z"
       id="path927"
       sodipodi:nodetypes="ccsscaccc" />
    <path
       style="fill:#d7707f;fill-opacity:1;stroke:none;stroke-width:0.766609;stroke-linecap:butt;stroke-linejoin:miter;stroke-miterlimit:4;stroke-dasharray:none;stroke-opacity:1"
       d="m 100.15418,241.55774 h 88.37228 l -0.023,-102.16466 c -7.90543,6.46505 -19.01283,9.5758 -13.91518,36.79273 3.00556,16.04706 -35.88001,-1.30937 -36.79895,38.51209 -0.4293,18.60131 -29.77327,5.6565 -37.63515,26.85984 z"
       id="path923"
       sodipodi:nodetypes="cccssc" />
  </g>
</svg>
